<?xml version="1.0" standalone="no"?><!DOCTYPE svg PUBLIC "-//W3C//DTD SVG 1.1//EN" "http://www.w3.org/Graphics/SVG/1.1/DTD/svg11.dtd"><svg t="1752243797885" class="icon" viewBox="0 0 2908 1024" version="1.1" xmlns="http://www.w3.org/2000/svg" p-id="3525" xmlns:xlink="http://www.w3.org/1999/xlink" width="567.96875" height="200"><path d="M2391.494664 254.026043h89.991523c3.921769 23.478323 7.843538 7.843538 7.843538 27.347802v132.92182h-97.835061z m465.749272-179.773886c-11.713016-11.503855-19.556554-11.503855-39.113108-11.503855h-19.608845c-31.374151 0-66.5132 27.347802-70.434969 54.695603-11.713016 7.843538-11.713016 7.843538-11.713016 27.347802v109.234336h109.548077c43.087167 0 82.200276-50.773834 82.200276-101.599959 0-35.191339-27.400092-62.748302-50.878415-78.173927z m-1495.135168 386.947863L1432.752898 336.121738l31.374151-78.435377h-192.062095c-3.921769 15.687076-3.921769 27.347802-19.556554 27.347801-7.843538 0-11.765307-7.791248-11.765307-15.687075v-11.399275c0-7.843538 31.374151-66.46091 39.165399-78.173926L1370.004596 3.921769 1174.229893 0c-15.687076 78.435378-168.32232 297.00863-168.32232 371.260787v15.687076c0 35.191339 23.478323 39.113108 43.034877 54.747894l133.078691 3.921768-66.5132 121.156514-7.843538 19.504264c-3.921769 7.843538-35.191339 93.808712-35.19134 101.652249V711.147424c0 54.695603 50.878415 54.695603 109.809529 54.695603 43.087167 0 133.078691 7.843538 160.478783-7.791247l78.435377-152.426084H1315.099831c0-3.921769-7.791248-11.713016-7.791247-15.687076 0-19.556554 43.034877-97.730481 54.800184-113.365266zM219.200735 617.495583l31.374151-363.46954H58.721953c-27.400092 0-15.687076 78.435378-15.687076 105.521728 0 47.061227-7.791248 82.095695-11.713016 121.156513 0 50.826125-7.843538 62.748302-7.843538 113.365266 0 66.40862-15.687076 78.435378-19.556554 117.234745L0 730.860849l105.678599 203.199918c50.878415-39.060818 113.522137-214.965225 113.522136-316.565184z m727.984885 383.026094v15.687075h19.608845l50.878415 7.791248 226.991982-3.869479 94.122454-191.539192c-117.443905 0-199.644181 7.843538-293.557474-15.687075z m-94.122453-82.095695v-15.687076h3.921769L927.629066 758.20865c3.921769-15.687076 19.556554-31.374151 19.556554-31.374151 0-3.921769-23.478323-85.965174-27.400092-105.521728-7.791248-35.191339-7.791248-85.965174-7.791247-125.078282 0-70.330389-19.608844-164.1391-19.608845-238.391258H700.689373c7.791248 35.191339 15.687076 144.582546 15.687076 183.695655 0 58.617372 11.765307 132.86953 15.687075 191.486902 7.843538 85.965174 54.800184 277.504366 113.522137 293.139151z m-469.46188-54.695604h-125.496604v15.687076c0 74.252157 62.748302 140.713067 137.000459 140.713067 62.748302 0 101.75683-7.843538 129.156922-43.034877 27.400092-23.426033 50.878415-78.121636 50.878415-125.025992V0H383.601287zM1933.536639 257.947812c11.765307 0 15.687076-3.921769 15.687075-15.687076V62.748302h-454.036255v195.19951h133.07869v570.591227H1448.439973c-23.478323 0-97.835061 160.269622-105.678598 191.539192h669.315222v-191.539192h-192.062095V257.947812z m137.00046-3.921769c15.687076 3.921769-3.921769 3.921769 15.687075 3.921769h117.443905v156.347853h-191.852933v191.486902h191.800643v414.295664h187.878875v-414.295664l281.792166 7.791247c19.556554 7.843538 43.087167 15.687076 43.087168 54.747894v187.565133H2524.573354c0 97.730481 74.356738 164.19139 176.113568 164.19139 140.922228 0 207.435429-50.826125 207.435429-195.460961v-207.121687c0-109.443497-66.5132-203.199918-164.348261-203.199918h-62.748302V300.930399c0-144.582546-78.435378-238.391258-215.278967-238.391258h-74.252157V0h-183.957106v62.748302H2070.693969z" fill="#ffffff" p-id="3526"></path></svg>